<?xml version="1.0" encoding="UTF-8" standalone="no"?>
<!-- Created with Inkscape (http://www.inkscape.org/) -->

<svg
   xmlns:dc="http://purl.org/dc/elements/1.1/"
   xmlns:cc="http://creativecommons.org/ns#"
   xmlns:rdf="http://www.w3.org/1999/02/22-rdf-syntax-ns#"
   xmlns:svg="http://www.w3.org/2000/svg"
   xmlns="http://www.w3.org/2000/svg"
   xmlns:sodipodi="http://sodipodi.sourceforge.net/DTD/sodipodi-0.dtd"
   xmlns:inkscape="http://www.inkscape.org/namespaces/inkscape"
   id="svg4136"
   version="1.1"
   inkscape:version="0.91 r13725"
   width="213"
   height="175"
   viewBox="0 0 213 175"
   sodipodi:docname="wolfwhite.svg"
   inkscape:export-filename="/Users/morin_ricardo/Projects/howl-pics/howllargewhite.png"
   inkscape:export-xdpi="102.85714"
   inkscape:export-ydpi="102.85714">
  <metadata
     id="metadata4142">
    <rdf:RDF>
      <cc:Work
         rdf:about="">
        <dc:format>image/svg+xml</dc:format>
        <dc:type
           rdf:resource="http://purl.org/dc/dcmitype/StillImage" />
        <dc:title></dc:title>
      </cc:Work>
    </rdf:RDF>
  </metadata>
  <defs
     id="defs4140" />
  <sodipodi:namedview
     pagecolor="#000000"
     bordercolor="#666666"
     borderopacity="1"
     objecttolerance="10"
     gridtolerance="10"
     guidetolerance="10"
     inkscape:pageopacity="0"
     inkscape:pageshadow="2"
     inkscape:window-width="2187"
     inkscape:window-height="1285"
     id="namedview4138"
     showgrid="false"
     inkscape:zoom="4.7073109"
     inkscape:cx="106.19957"
     inkscape:cy="93.081567"
     inkscape:window-x="0"
     inkscape:window-y="0"
     inkscape:window-maximized="0"
     inkscape:current-layer="svg4136"
     showguides="false" />
  <path
     sodipodi:nodetypes="ccc"
     inkscape:connector-curvature="0"
     id="path4526"
     d="m 71.802579,56.330472 c 1.90356,5.059398 19.304,8.017401 10.07143,1.995288 -3.47046,-1.324081 -6.91169,-1.699822 -10.07143,-1.995288 z"
     style="fill:#000000;fill-opacity:0;fill-rule:evenodd;stroke:#ffffff;stroke-width:3;stroke-linecap:butt;stroke-linejoin:miter;stroke-miterlimit:4;stroke-dasharray:none;stroke-opacity:1" />
  <path
     style="fill:#000000;fill-opacity:0;fill-rule:evenodd;stroke:#ffffff;stroke-width:3;stroke-linecap:round;stroke-linejoin:miter;stroke-miterlimit:4;stroke-dasharray:none;stroke-opacity:1"
     d="m 52.355075,27.600181 c 7.087801,-0.07468 5.634372,5.772941 5.634372,5.772941 l 0.06493,0.22916"
     id="path4547"
     inkscape:connector-curvature="0" />
  <path
     style="fill:#000000;fill-opacity:0;fill-rule:evenodd;stroke:#ffffff;stroke-width:3;stroke-linecap:butt;stroke-linejoin:miter;stroke-miterlimit:4;stroke-dasharray:none;stroke-opacity:1"
     d="M 25.434249,4.3991053 C 26.057965,3.9970781 25.86634,3.4602991 26.531542,3.1429813 L 29.486181,2.554649 c 1.02958,0.7451051 2.160281,1.3647945 3.072326,2.2599402 l 0.652623,0.5916264 c -1.676829,-0.012048 -3.357159,0.024259 -5.03179,-0.018436 z"
     id="path4551"
     inkscape:connector-curvature="0"
     sodipodi:nodetypes="ccccccc" />
  <text
     xml:space="preserve"
     style="font-style:normal;font-variant:normal;font-weight:normal;font-stretch:normal;font-size:45px;line-height:125%;font-family:'Tw Cen MT';-inkscape-font-specification:'Tw Cen MT, Normal';text-align:start;letter-spacing:0px;word-spacing:0px;writing-mode:lr-tb;text-anchor:start;fill:#ffffff;fill-opacity:1;stroke:#ffffff;stroke-width:0.2;stroke-linecap:butt;stroke-linejoin:miter;stroke-miterlimit:4;stroke-dasharray:none;stroke-opacity:1"
     x="91.630882"
     y="30.327358"
     id="text4581"
     sodipodi:linespacing="125%"
     transform="scale(0.98901894,1.011103)"><tspan
       sodipodi:role="line"
       id="tspan4583"
       x="91.630882"
       y="30.327358"
       style="font-style:normal;font-variant:normal;font-weight:normal;font-stretch:normal;font-size:45px;line-height:125%;font-family:'Tw Cen MT';-inkscape-font-specification:'Tw Cen MT, Normal';text-align:start;writing-mode:lr-tb;text-anchor:start;stroke-width:0.2">HOWL</tspan></text>
  <g
     id="g4642">
    <path
       style="fill:none;fill-rule:evenodd;stroke:#ffffff;stroke-width:3;stroke-linecap:round;stroke-linejoin:miter;stroke-miterlimit:4;stroke-dasharray:none;stroke-opacity:1"
       d="M 47.160684,173.08808 C 45.093304,166.01882 38.972611,160.27701 39.57271,152.54906 38.898909,137.60744 33.482427,123.46189 26.752818,110.28892 23.535588,103.90038 22.558472,96.784223 23.21665,89.725119 23.07595,76.898969 18.847653,64.66062 16.707678,52.11862 14.385626,42.51253 2.9648559,37.203038 3.1759173,26.747074 5.9092566,18.770057 16.87741,32.50281 20.076118,25.773611 19.781372,19.221885 18.577449,12.125564 22.19007,6.243562 25.889871,-2.7696215 35.002993,4.4180847 38.225948,9.8623143 42.983673,15.688235 48.309042,21.788855 56.116162,23.199024 c 8.974047,2.075823 13.903503,11.469272 18.204274,18.896249 1.904663,7.475967 9.750586,9.262907 15.106112,13.536012 3.604586,2.634144 9.32541,6.882999 1.860532,8.647158 -7.76623,4.157302 -17.320653,1.541888 -23.520151,-4.206056"
       id="path4634"
       inkscape:connector-curvature="0" />
    <path
       inkscape:connector-curvature="0"
       id="path4636"
       d="m 86.886126,66.870324 c 2.759246,6.051358 4.851395,11.165392 8.814898,16.531803 4.545326,6.37401 10.111846,11.978314 14.038886,18.785353 3.0918,4.24664 6.26757,8.4821 10.40654,11.77916 3.40694,3.0464 6.92286,6.0939 10.75101,8.56333 7.10952,3.62227 14.47875,6.6884 21.77526,9.88487 5.65495,3.13933 11.23454,6.39601 16.35589,10.36631 6.93489,4.73392 13.80924,9.54516 20.40384,14.74905 4.96657,3.50776 9.6892,7.31289 14.08077,11.52161 l 5.52333,4.03627"
       style="fill:none;fill-rule:evenodd;stroke:#ffffff;stroke-width:3;stroke-linecap:round;stroke-linejoin:miter;stroke-miterlimit:4;stroke-dasharray:none;stroke-opacity:1"
       sodipodi:nodetypes="cccccccccc" />
  </g>
</svg>
