<?xml version="1.0" encoding="UTF-8" standalone="no"?>
<!-- Created with Inkscape (http://www.inkscape.org/) -->

<svg
   xmlns:dc="http://purl.org/dc/elements/1.1/"
   xmlns:cc="http://creativecommons.org/ns#"
   xmlns:rdf="http://www.w3.org/1999/02/22-rdf-syntax-ns#"
   xmlns:svg="http://www.w3.org/2000/svg"
   xmlns="http://www.w3.org/2000/svg"
   xmlns:sodipodi="http://sodipodi.sourceforge.net/DTD/sodipodi-0.dtd"
   xmlns:inkscape="http://www.inkscape.org/namespaces/inkscape"
   id="svg4136"
   version="1.1"
   inkscape:version="0.91 r13725"
   width="213"
   height="175"
   viewBox="0 0 213 175"
   sodipodi:docname="wolf.svg"
   inkscape:export-filename="/Users/morin_ricardo/Projects/howl-pics/howllarge.png"
   inkscape:export-xdpi="102.85714"
   inkscape:export-ydpi="102.85714">
  <metadata
     id="metadata4142">
    <rdf:RDF>
      <cc:Work
         rdf:about="">
        <dc:format>image/svg+xml</dc:format>
        <dc:type
           rdf:resource="http://purl.org/dc/dcmitype/StillImage" />
        <dc:title></dc:title>
      </cc:Work>
    </rdf:RDF>
  </metadata>
  <defs
     id="defs4140" />
  <sodipodi:namedview
     pagecolor="#ffffff"
     bordercolor="#666666"
     borderopacity="1"
     objecttolerance="10"
     gridtolerance="10"
     guidetolerance="10"
     inkscape:pageopacity="0"
     inkscape:pageshadow="2"
     inkscape:window-width="2187"
     inkscape:window-height="1285"
     id="namedview4138"
     showgrid="false"
     inkscape:zoom="4.7073109"
     inkscape:cx="106.19957"
     inkscape:cy="87.5"
     inkscape:window-x="0"
     inkscape:window-y="0"
     inkscape:window-maximized="0"
     inkscape:current-layer="svg4136"
     showguides="false" />
  <g
     id="g4555"
     style="stroke-width:3;stroke-miterlimit:4;stroke-dasharray:none">
    <g
       style="stroke-width:3;stroke-miterlimit:4;stroke-dasharray:none"
       transform="translate(-99.141631,52.875536)"
       id="g4528">
      <path
         inkscape:connector-curvature="0"
         id="path4524"
         d="m 167.33906,7.360515 c 5.82639,5.235945 14.02217,8.377884 21.54115,4.824795 12.10715,-6.7256466 -8.18327,-12.46090188 -12.20683,-17.8791869 -5.75616,-9.6585871 -11.20615,-22.4290951 -23.59957,-24.6177451 -10.72573,-3.23048 -14.7838,-14.946161 -23.82213,-20.708534 -9.98511,-2.542626 -11.92327,16.314437 -9.53161,23.60098 -1.23748,8.538792 -20.052695,-9.970087 -16.8099,4.668242 1.80434,8.157121 10.05859,12.704919 13.30612,20.3943538 1.57302,7.5460628 1.47644,15.9072572 4.6033,23.3141512 2.26461,8.15777 1.83733,16.638116 1.42852,24.964224 1.81957,10.327224 9.54192,18.52879 11.05047,28.98482 3.34442,7.180119 5.25977,14.749312 4.8707,22.691888 0.27315,8.933477 4.24109,18.694497 12.53076,22.725427 52.81386,0.0995 105.62773,0.19893 158.44159,0.29839 C 295.45712,110.12999 282.55733,98.58661 267.88474,89.449874 259.19662,81.746309 248.59556,77.462204 238.09304,72.910472 225.93292,67.131881 214.2852,59.167799 207.59287,47.151852 200.41701,35.990175 189.75112,26.563528 186.26609,13.369099"
         style="fill:none;fill-rule:evenodd;stroke:#000000;stroke-width:3;stroke-linecap:round;stroke-linejoin:miter;stroke-opacity:1;stroke-miterlimit:4;stroke-dasharray:none" />
      <path
         sodipodi:nodetypes="ccc"
         inkscape:connector-curvature="0"
         id="path4526"
         d="m 170.94421,3.4549358 c 1.90356,5.0593981 19.304,8.0174012 10.07143,1.9952885 -3.47046,-1.3240811 -6.91169,-1.6998224 -10.07143,-1.9952885 z"
         style="fill:none;fill-rule:evenodd;stroke:#000000;stroke-width:3;stroke-linecap:butt;stroke-linejoin:miter;stroke-miterlimit:4;stroke-dasharray:none;stroke-opacity:1" />
    </g>
    <path
       inkscape:connector-curvature="0"
       id="path4547"
       d="m 51.717768,25.688261 c 7.087801,-0.07468 5.634372,5.772941 5.634372,5.772941 l 0.06493,0.22916"
       style="fill:none;fill-rule:evenodd;stroke:#000000;stroke-width:3;stroke-linecap:round;stroke-linejoin:miter;stroke-miterlimit:4;stroke-dasharray:none;stroke-opacity:1" />
    <path
       inkscape:connector-curvature="0"
       id="path4551"
       d="m 24.683176,4.3559772 1.715351,-1.3942701 3.087654,-0.6971347 2.368536,1.8390838 1.356413,1.3942701 c -2.152351,0 -7.47643,0 -4.966602,0 z"
       style="fill:#000000;fill-opacity:1;fill-rule:evenodd;stroke:#000000;stroke-width:3;stroke-linecap:butt;stroke-linejoin:miter;stroke-miterlimit:4;stroke-dasharray:none;stroke-opacity:1"
       sodipodi:nodetypes="ccccccc" />
  </g>
  <text
     xml:space="preserve"
     style="font-style:normal;font-variant:normal;font-weight:bold;font-stretch:normal;font-size:50.32017136px;line-height:125%;font-family:'Tw Cen MT';-inkscape-font-specification:'Tw Cen MT, Bold';text-align:start;letter-spacing:0px;word-spacing:0px;writing-mode:lr-tb;text-anchor:start;fill:#000000;fill-opacity:1;stroke:none;stroke-width:0.2;stroke-linecap:butt;stroke-linejoin:miter;stroke-miterlimit:4;stroke-dasharray:none;stroke-opacity:1"
     x="77.165657"
     y="34.223785"
     id="text4581"
     sodipodi:linespacing="125%"
     transform="scale(1.0304238,0.97047446)"><tspan
       sodipodi:role="line"
       id="tspan4583"
       x="77.165657"
       y="34.223785">HOWL</tspan></text>
</svg>
