<?xml version="1.0" encoding="UTF-8" standalone="no"?>
<!-- Created with Inkscape (http://www.inkscape.org/) -->

<svg
   xmlns:dc="http://purl.org/dc/elements/1.1/"
   xmlns:cc="http://creativecommons.org/ns#"
   xmlns:rdf="http://www.w3.org/1999/02/22-rdf-syntax-ns#"
   xmlns:svg="http://www.w3.org/2000/svg"
   xmlns="http://www.w3.org/2000/svg"
   xmlns:sodipodi="http://sodipodi.sourceforge.net/DTD/sodipodi-0.dtd"
   xmlns:inkscape="http://www.inkscape.org/namespaces/inkscape"
   id="svg4136"
   version="1.1"
   inkscape:version="0.91 r13725"
   width="213.90846"
   height="179.1944"
   viewBox="0 0 213.90846 179.1944"
   sodipodi:docname="wolfwhitev4.svg"
   inkscape:export-filename="/Users/morin_ricardo/Projects/howl-pics/howlwhiteonblack.png"
   inkscape:export-xdpi="200.91533"
   inkscape:export-ydpi="200.91533">
  <metadata
     id="metadata4142">
    <rdf:RDF>
      <cc:Work
         rdf:about="">
        <dc:format>image/svg+xml</dc:format>
        <dc:type
           rdf:resource="http://purl.org/dc/dcmitype/StillImage" />
        <dc:title></dc:title>
      </cc:Work>
    </rdf:RDF>
  </metadata>
  <defs
     id="defs4140" />
  <sodipodi:namedview
     pagecolor="#000000"
     bordercolor="#666666"
     borderopacity="1"
     objecttolerance="10"
     gridtolerance="10"
     guidetolerance="10"
     inkscape:pageopacity="0"
     inkscape:pageshadow="2"
     inkscape:window-width="2187"
     inkscape:window-height="1285"
     id="namedview4138"
     showgrid="false"
     inkscape:zoom="3.3285714"
     inkscape:cx="47.991077"
     inkscape:cy="119.25698"
     inkscape:window-x="0"
     inkscape:window-y="23"
     inkscape:window-maximized="0"
     inkscape:current-layer="layer4"
     showguides="false"
     fit-margin-top="0"
     fit-margin-left="0"
     fit-margin-right="0"
     fit-margin-bottom="0" />
  <g
     inkscape:groupmode="layer"
     id="layer4"
     inkscape:label="background"
     transform="translate(0.82584392,2.05331)"
     style="opacity:1">
    <rect
       style="opacity:1;fill:#000000;fill-opacity:1;stroke:none;stroke-width:8;stroke-linecap:round;stroke-linejoin:round;stroke-miterlimit:4;stroke-dasharray:none;stroke-opacity:1"
       id="rect4711"
       width="216.60945"
       height="181.15881"
       x="-1.4267024"
       y="-2.5155652" />
  </g>
  <g
     inkscape:groupmode="layer"
     id="layer5"
     inkscape:label="howl"
     transform="translate(0.82584392,2.05331)">
    <text
       xml:space="preserve"
       style="font-style:normal;font-variant:normal;font-weight:normal;font-stretch:normal;font-size:41.58507538px;line-height:110.00000238%;font-family:'Arial Rounded MT Bold';-inkscape-font-specification:'Arial Rounded MT Bold, Normal';text-align:start;letter-spacing:0px;word-spacing:0px;writing-mode:lr-tb;text-anchor:start;fill:#ffffff;fill-opacity:1;stroke:#ffffff;stroke-width:0.2;stroke-linecap:butt;stroke-linejoin:miter;stroke-miterlimit:4;stroke-dasharray:none;stroke-opacity:1"
       x="55.241768"
       y="172.28947"
       id="text4581"
       sodipodi:linespacing="110%"
       transform="scale(0.97402567,1.026667)"><tspan
         sodipodi:role="line"
         id="tspan4583"
         x="55.241768"
         y="172.28947"
         style="font-style:normal;font-variant:normal;font-weight:normal;font-stretch:normal;font-size:41.58507538px;line-height:110.00000238%;font-family:'Arial Rounded MT Bold';-inkscape-font-specification:'Arial Rounded MT Bold, Normal';text-align:start;writing-mode:lr-tb;text-anchor:start;stroke-width:0.2">HOWL</tspan></text>
    <path
       style="fill:none;fill-rule:evenodd;stroke:#ffffff;stroke-width:8;stroke-linecap:round;stroke-linejoin:miter;stroke-miterlimit:4;stroke-dasharray:none;stroke-opacity:1"
       d="M 47.160684,173.08808 C 43.956453,164.99027 38.166969,157.60612 39.260978,148.36786 37.895135,133.52922 31.480925,119.89003 25.175401,106.6238 21.383252,97.004296 24.431706,86.538336 21.873391,76.670316 19.967714,67.606173 18.182461,58.455155 15.831775,49.522419 12.366211,41.522821 3.0251674,36.237398 3.1759173,26.747077 6.5779054,18.77568 21.618464,35.285152 19.852176,22.042425 19.28872,15.125412 19.417244,4.9448526 26.899612,1.992441 c 9.365944,0.560649 12.213166,11.46936 19.12792,16.194138 5.175509,5.345679 13.759017,4.212956 18.658257,9.945281 5.369058,5.248474 8.417865,12.269303 12.045386,18.631436 5.212917,5.856643 14.512595,7.457154 18.198113,14.69842 -5.528878,6.814804 -17.862216,5.87228 -24.69033,0.612206 L 68.967395,61.112531 67.766929,60.07239"
       id="path4634"
       inkscape:connector-curvature="0" />
    <path
       style="fill:none;fill-rule:evenodd;stroke:#ffffff;stroke-width:8;stroke-linecap:round;stroke-linejoin:miter;stroke-miterlimit:4;stroke-dasharray:none;stroke-opacity:1"
       d="m 86.886126,66.870327 c 3.63601,9.287406 9.057186,17.702254 15.605874,25.191035 6.36775,7.649678 10.77795,16.979678 18.93756,23.046598 5.25038,5.07663 11.47258,8.90868 18.23893,11.60732 9.5665,4.02903 19.07969,8.31828 27.41888,14.60929 12.83588,9.07152 25.83464,18.03754 37.54503,28.5451 1.46805,1.0728 2.9361,2.14561 4.40415,3.21841"
       id="path4636"
       inkscape:connector-curvature="0" />
  </g>
</svg>
