{
    "accessors": {
        "accessor_buffer_Mesh_0": {
            "bufferView": "bufferView_buffer_Mesh_0",
            "byteOffset": 0,
            "byteStride": 36,
            "componentType": 5126,
            "count": 1248,
            "max": [
                0.7605534791946411,
                2.0303659439086914,
                4.248093605041504
            ],
            "min": [
                -0.7605534791946411,
                -2.1534323692321777,
                -3.7122294902801514
            ],
            "type": "VEC3"
        },
        "accessor_buffer_Mesh_1": {
            "bufferView": "bufferView_buffer_Mesh_0",
            "byteOffset": 12,
            "byteStride": 36,
            "componentType": 5126,
            "count": 1248,
            "max": [
                0.9999141693115234,
                0.9667782783508301,
                0.9033191800117493
            ],
            "min": [
                -0.9999141693115234,
                -0.9999995231628418,
                -0.9111985564231873
            ],
            "type": "VEC3"
        },
        "accessor_buffer_Mesh_2": {
            "bufferView": "bufferView_buffer_Mesh_0",
            "byteOffset": 24,
            "byteStride": 36,
            "componentType": 5126,
            "count": 1248,
            "max": [
                1.0,
                1.0,
                1.0
            ],
            "min": [
                1.0,
                1.0,
                1.0
            ],
            "type": "VEC3"
        },
        "accessor_buffer_Mesh_3": {
            "bufferView": "bufferView_buffer_Mesh_1",
            "byteOffset": 0,
            "byteStride": 2,
            "componentType": 5123,
            "count": 1014,
            "max": [
                1247
            ],
            "min": [
                2
            ],
            "type": "SCALAR"
        },
        "accessor_buffer_Mesh_4": {
            "bufferView": "bufferView_buffer_Mesh_2",
            "byteOffset": 0,
            "byteStride": 2,
            "componentType": 5123,
            "count": 858,
            "max": [
                1244
            ],
            "min": [
                0
            ],
            "type": "SCALAR"
        }
    },
    "asset": {
        "profile": {
            "api": "WebGL",
            "version": "1.0.3"
        },
        "version": "1.0"
    },
    "bufferViews": {
        "bufferView_buffer_Mesh_0": {
            "buffer": "buffer_combined",
            "byteLength": 44928,
            "byteOffset": 0,
            "target": 34962
        },
        "bufferView_buffer_Mesh_1": {
            "buffer": "buffer_combined",
            "byteLength": 2028,
            "byteOffset": 44928,
            "target": 34963
        },
        "bufferView_buffer_Mesh_2": {
            "buffer": "buffer_combined",
            "byteLength": 1716,
            "byteOffset": 46956,
            "target": 34963
        }
    },
    "buffers": {
        "buffer_combined": {
            "byteLength": 48672,
            "type": "arraybuffer",
            "uri": "wolf_buffer.bin"
        }
    },
    "cameras": {
        "camera_Camera": {
            "name": "Camera",
            "perspective": {
                "aspectRatio": 1.703595982340029,
                "yfov": 0.5033799409866333,
                "zfar": 100.0,
                "znear": 0.10000000149011612
            },
            "type": "perspective"
        }
    },
    "extensions": {
        "KHR_materials_common": {
            "lights": {}
        }
    },
    "extensionsUsed": [
        "KHR_materials_common"
    ],
    "materials": {
        "material_Grey": {
            "extensions": {
                "KHR_materials_common": {
                    "technique": "CONSTANT",
                    "values": {
                        "ambient": [
                            1.0,
                            1.0,
                            1.0,
                            1.0
                        ],
                        "doubleSided": false,
                        "emission": [
                            0.05,
                            0.05,
                            0.05,
                            1.0
                        ],
                        "transparency": 1.0,
                        "transparent": false
                    }
                }
            },
            "name": "Grey"
        },
        "material_White": {
            "extensions": {
                "KHR_materials_common": {
                    "technique": "CONSTANT",
                    "values": {
                        "ambient": [
                            1.0,
                            1.0,
                            1.0,
                            1.0
                        ],
                        "doubleSided": false,
                        "emission": [
                            0.4,
                            0.4,
                            0.4,
                            1.0
                        ],
                        "transparency": 1.0,
                        "transparent": false
                    }
                }
            },
            "name": "White"
        }
    },
    "meshes": {
        "mesh_Mesh": {
            "name": "Mesh",
            "primitives": [
                {
                    "attributes": {
                        "COLOR_0": "accessor_buffer_Mesh_2",
                        "NORMAL": "accessor_buffer_Mesh_1",
                        "POSITION": "accessor_buffer_Mesh_0"
                    },
                    "indices": "accessor_buffer_Mesh_3",
                    "material": "material_White",
                    "mode": 4
                },
                {
                    "attributes": {
                        "COLOR_0": "accessor_buffer_Mesh_2",
                        "NORMAL": "accessor_buffer_Mesh_1",
                        "POSITION": "accessor_buffer_Mesh_0"
                    },
                    "indices": "accessor_buffer_Mesh_4",
                    "material": "material_Grey",
                    "mode": 4
                }
            ]
        }
    },
    "nodes": {
        "node_Camera": {
            "camera": "camera_Camera",
            "children": [],
            "name": "Camera",
            "rotation": [
                -0.08451598137617111,
                0.9058698415756226,
                0.18542367219924927,
                0.37131527066230774
            ],
            "scale": [
                0.9999999403953552,
                1.0,
                1.0
            ],
            "translation": [
                6.240142345428467,
                4.910860061645508,
                -7.070776462554932
            ]
        },
        "node_Wolf": {
            "children": [],
            "meshes": [
                "mesh_Mesh"
            ],
            "name": "Wolf",
            "rotation": [
                -0.002732787048444152,
                0.6976109743118286,
                -0.025614110752940178,
                0.7160136699676514
            ],
            "scale": [
                1.0,
                1.0,
                0.9999999403953552
            ],
            "translation": [
                -0.556107223033905,
                2.2470574378967285,
                0.3543095886707306
            ]
        }
    },
    "samplers": {
        "sampler_default": {}
    },
    "scene": "scene_Scene",
    "scenes": {
        "scene_Scene": {
            "extras": {
                "active_camera": "camera_Camera",
                "background_color": [
                    0.05087608844041824,
                    0.05087608844041824,
                    0.05087608844041824
                ],
                "frames_per_second": 24
            },
            "name": "Scene",
            "nodes": [
                "node_Wolf",
                "node_Camera"
            ]
        }
    }
}
