<?xml version="1.0" encoding="UTF-8" standalone="no"?>
<!-- Created with Inkscape (http://www.inkscape.org/) -->

<svg
   xmlns:dc="http://purl.org/dc/elements/1.1/"
   xmlns:cc="http://creativecommons.org/ns#"
   xmlns:rdf="http://www.w3.org/1999/02/22-rdf-syntax-ns#"
   xmlns:svg="http://www.w3.org/2000/svg"
   xmlns="http://www.w3.org/2000/svg"
   xmlns:sodipodi="http://sodipodi.sourceforge.net/DTD/sodipodi-0.dtd"
   xmlns:inkscape="http://www.inkscape.org/namespaces/inkscape"
   width="59.999485"
   height="50.000874"
   viewBox="0 0 59.999485 50.000873"
   id="svg4232"
   version="1.1"
   inkscape:version="0.91 r13725"
   sodipodi:docname="lshape.svg">
  <sodipodi:namedview
     id="base"
     pagecolor="#ffffff"
     bordercolor="#666666"
     borderopacity="1.0"
     inkscape:pageopacity="0.0"
     inkscape:pageshadow="2"
     inkscape:zoom="7.9195959"
     inkscape:cx="9.6385749"
     inkscape:cy="20.171556"
     inkscape:document-units="px"
     inkscape:current-layer="layer1"
     showgrid="false"
     inkscape:window-width="1280"
     inkscape:window-height="702"
     inkscape:window-x="0"
     inkscape:window-y="1"
     inkscape:window-maximized="1"
     fit-margin-top="0"
     fit-margin-left="0"
     fit-margin-right="0"
     fit-margin-bottom="0"
     units="px" />
  <defs
     id="defs4234">
    <inkscape:perspective
       id="perspective4240"
       inkscape:persp3d-origin="402.35182 : 253.81275 : 1"
       inkscape:vp_z="774.39907 : 429.20643 : 1"
       inkscape:vp_y="0 : 999.99998 : 0"
       inkscape:vp_x="525.27934 : 940.34363 : 1"
       sodipodi:type="inkscape:persp3d" />
  </defs>
  <metadata
     id="metadata4237">
    <rdf:RDF>
      <cc:Work
         rdf:about="">
        <dc:format>image/svg+xml</dc:format>
        <dc:type
           rdf:resource="http://purl.org/dc/dcmitype/StillImage" />
        <dc:title></dc:title>
      </cc:Work>
    </rdf:RDF>
  </metadata>
  <g
     id="layer1"
     inkscape:groupmode="layer"
     inkscape:label="Layer 1"
     transform="translate(-121.17314,-124.45465)">
    <g
       id="g4324"
       transform="matrix(0.20041815,0,0,0.39555665,98.951745,76.669506)">
      <path
         sodipodi:nodetypes="ccccccccccccccc"
         inkscape:connector-curvature="0"
         id="path4305"
         d="m 409.031,205.95138 -0.28146,-36.70782 -69.94967,14.45275 -48.55098,-25.95109 -65.65127,0.35817 -36.94071,9.61185 -75.16465,-7.58972 -0.56828,36.43508 22.56645,26.31788 61.61064,14.02184 56.51642,-2.12595 60.14947,11.43158 17.1869,-14.26038 68.3597,-3.21664 z"
         inkscape:transform-center-y="2.5360332"
         inkscape:transform-center-x="-7.7858388"
         style="opacity:1;fill:#ffffff;fill-opacity:1;stroke:#000000;stroke-width:1.87825513;stroke-miterlimit:4;stroke-dasharray:none;stroke-opacity:1" />
      <path
         style="opacity:1;fill:#ffffff;fill-opacity:1;stroke:#000000;stroke-width:1.87825513;stroke-miterlimit:4;stroke-dasharray:none;stroke-opacity:1"
         inkscape:transform-center-x="-7.7858388"
         inkscape:transform-center-y="2.5360332"
         d="m 409.031,169.95138 -26.54543,-15.49462 -43.6857,-6.76045 -48.55098,-25.95109 -65.65127,0.35817 -36.94071,9.61185 -67.08343,0.4915 -8.6495,28.35386 22.56645,26.31788 61.61064,14.02184 56.51642,-2.12595 60.14947,11.43158 17.1869,-14.26038 68.3597,-3.21664 z"
         id="path4298"
         inkscape:connector-curvature="0"
         sodipodi:nodetypes="ccccccccccccccc" />
      <path
         sodipodi:nodetypes="cccccccccccccccccc"
         inkscape:connector-curvature="0"
         d="m 409.031,169.95138 0,36 m -297.10702,-45.39078 0,36 m 22.56645,-9.68212 0,36 m 61.61064,-21.97816 0,36 m 56.51642,-38.12595 0,36 m 60.14947,-24.56842 0,36 m 17.1869,-50.26038 0,36 m 68.3597,-39.21664 0,36 m 10.71744,-58.77755 0,36"
         style="fill:#ffffff;fill-opacity:1;stroke:#000000;stroke-width:1.87825513;stroke-miterlimit:4;stroke-dasharray:none;stroke-opacity:1"
         id="path4315" />
    </g>
  </g>
</svg>
